# xmcd CD database file
#
# Track frame offsets:
#	150
#	2781
#	22669
#	42415
#	60590
#	74098
#	93004
#	97473
#	105230
#	118484
#	136415
#	153009
#	163654
#	173794
#	184540
#
# Disc length: 2998 seconds
#
# Revision: 0
# Processed by: cddbd v1.4PL0 Copyright (c) Steve Scherf et al.
# Submitted via: CDex 1.50
#
DISCID=c00bb40f
DTITLE=Spoonfull - For A Few Sugar More
DYEAR=1900
DGENRE=Blues
TTITLE0=Rain Falling
TTITLE1=32.20
TTITLE2=The Wolf
TTITLE3=Framus The Cat
TTITLE4=Rock That Voot
TTITLE5=Mellow Down Easy
TTITLE6=Bobby
TTITLE7=Gna Gna Gna
TTITLE8=Diggin My Potatoes
TTITLE9=St James Infirmary
TTITLE10=The Duck
TTITLE11=Long Spirit
TTITLE12=Spoonfull
TTITLE13=Just A Little Bit
TTITLE14=Why Don't You Do Right
EXTD=
EXTT0=
EXTT1=
EXTT2=
EXTT3=
EXTT4=
EXTT5=
EXTT6=
EXTT7=
EXTT8=
EXTT9=
EXTT10=
EXTT11=
EXTT12=
EXTT13=
EXTT14=
PLAYORDER=
